{
   "asset": {
      "version": "2.0",
      "generator": "babylon.js glTF exporter for 3dsmax 2021 v20210811.2"
   },
   "scene": 0,
   "scenes": [{ "nodes": [0, 1] }],
   "nodes": [
      { "mesh": 0, "translation": [0.0, -0.0277126487, 0.0], "name": "outside" },
      { "mesh": 1, "translation": [0.0, -0.0381, 0.0], "name": "downside" }
   ],
   "meshes": [
      {
         "primitives": [
            {
               "attributes": { "POSITION": 1, "NORMAL": 2, "TEXCOORD_0": 3 },
               "indices": 0,
               "material": 0
            }
         ],
         "name": "outside"
      },
      {
         "primitives": [
            {
               "attributes": { "POSITION": 5, "NORMAL": 6, "TEXCOORD_0": 7 },
               "indices": 4,
               "material": 1
            }
         ],
         "name": "downside"
      }
   ],
   "accessors": [
      {
         "bufferView": 0,
         "componentType": 5123,
         "count": 64302,
         "type": "SCALAR",
         "name": "accessorIndices"
      },
      {
         "bufferView": 1,
         "componentType": 5126,
         "count": 10719,
         "max": [1.74836326, 0.264855951, 1.63880789],
         "min": [-1.98482454, 0.01482852, -2.09411049],
         "type": "VEC3",
         "name": "accessorPositions"
      },
      {
         "bufferView": 1,
         "byteOffset": 128628,
         "componentType": 5126,
         "count": 10719,
         "type": "VEC3",
         "name": "accessorNormals"
      },
      {
         "bufferView": 2,
         "componentType": 5126,
         "count": 10719,
         "type": "VEC2",
         "name": "accessorUVs"
      },
      {
         "bufferView": 0,
         "byteOffset": 128604,
         "componentType": 5123,
         "count": 64302,
         "type": "SCALAR",
         "name": "accessorIndices"
      },
      {
         "bufferView": 1,
         "byteOffset": 257256,
         "componentType": 5126,
         "count": 10719,
         "max": [1.74836326, 0.264855951, 1.63880789],
         "min": [-1.98482454, 0.01482852, -2.09411049],
         "type": "VEC3",
         "name": "accessorPositions"
      },
      {
         "bufferView": 1,
         "byteOffset": 385884,
         "componentType": 5126,
         "count": 10719,
         "type": "VEC3",
         "name": "accessorNormals"
      },
      {
         "bufferView": 2,
         "byteOffset": 85752,
         "componentType": 5126,
         "count": 10719,
         "type": "VEC2",
         "name": "accessorUVs"
      }
   ],
   "bufferViews": [
      { "buffer": 0, "byteLength": 257208, "name": "bufferViewScalar" },
      {
         "buffer": 0,
         "byteOffset": 257208,
         "byteLength": 514512,
         "byteStride": 12,
         "name": "bufferViewFloatVec3"
      },
      {
         "buffer": 0,
         "byteOffset": 771720,
         "byteLength": 171504,
         "byteStride": 8,
         "name": "bufferViewFloatVec2"
      }
   ],
   "buffers": [{ "uri": "plate.bin", "byteLength": 943224 }],
   "materials": [
      {
         "pbrMetallicRoughness": {
            "baseColorTexture": { "index": 0 },
            "metallicFactor": 0.0,
            "roughnessFactor": 0.0
         },
         "doubleSided": true,
         "name": "default",
         "extras": { "babylonSeparateCullingPass": false }
      },
      {
         "pbrMetallicRoughness": {
            "baseColorTexture": { "index": 1 },
            "metallicFactor": 0.0,
            "roughnessFactor": 0.599999964
         },
         "doubleSided": true,
         "name": "Wall Paint",
         "extras": { "babylonSeparateCullingPass": false }
      }
   ],
   "textures": [
      { "sampler": 0, "source": 0, "name": "reWalls4439.png" },
      { "sampler": 0, "source": 1, "name": "screenshot.jpg" }
   ],
   "images": [{ "uri": "reWalls4439.png" }, { "uri": "screenshot.jpg" }],
   "samplers": [{ "magFilter": 9729, "minFilter": 9987 }]
}
